<mxfile host="app.diagrams.net" agent="Mozilla/5.0 (X11; Ubuntu; Linux x86_64; rv:139.0) Gecko/20100101 Firefox/139.0" version="27.1.4">
  <diagram name="Page-1" id="ax6DoAJHezKDq4MgkTRr">
    <mxGraphModel dx="1426" dy="790" grid="1" gridSize="10" guides="1" tooltips="1" connect="1" arrows="1" fold="1" page="1" pageScale="1" pageWidth="850" pageHeight="1100" math="0" shadow="0">
      <root>
        <mxCell id="0" />
        <mxCell id="1" parent="0" />
        <mxCell id="aI2UTffV4MV9dATLmnbT-1" value="Step 1" style="rounded=1;whiteSpace=wrap;html=1;fillColor=#ffe6cc;strokeColor=#d79b00;" vertex="1" parent="1">
          <mxGeometry x="365" y="240" width="120" height="40" as="geometry" />
        </mxCell>
        <mxCell id="aI2UTffV4MV9dATLmnbT-8" style="edgeStyle=orthogonalEdgeStyle;rounded=0;orthogonalLoop=1;jettySize=auto;html=1;exitX=0.5;exitY=1;exitDx=0;exitDy=0;entryX=0.5;entryY=0;entryDx=0;entryDy=0;" edge="1" parent="1" source="aI2UTffV4MV9dATLmnbT-2" target="aI2UTffV4MV9dATLmnbT-3">
          <mxGeometry relative="1" as="geometry" />
        </mxCell>
        <mxCell id="aI2UTffV4MV9dATLmnbT-2" value="PAIR" style="rounded=1;whiteSpace=wrap;html=1;fillColor=#dae8fc;strokeColor=#6c8ebf;" vertex="1" parent="1">
          <mxGeometry x="365" y="280" width="120" height="40" as="geometry" />
        </mxCell>
        <mxCell id="aI2UTffV4MV9dATLmnbT-3" value="PAIR" style="rounded=1;whiteSpace=wrap;html=1;" vertex="1" parent="1">
          <mxGeometry x="365" y="400" width="120" height="40" as="geometry" />
        </mxCell>
        <mxCell id="aI2UTffV4MV9dATLmnbT-4" value="Step 2" style="rounded=1;whiteSpace=wrap;html=1;fillColor=#d5e8d4;strokeColor=#82b366;" vertex="1" parent="1">
          <mxGeometry x="365" y="440" width="120" height="40" as="geometry" />
        </mxCell>
        <mxCell id="aI2UTffV4MV9dATLmnbT-9" style="edgeStyle=orthogonalEdgeStyle;rounded=0;orthogonalLoop=1;jettySize=auto;html=1;exitX=0.5;exitY=1;exitDx=0;exitDy=0;entryX=0.5;entryY=0;entryDx=0;entryDy=0;" edge="1" parent="1" source="aI2UTffV4MV9dATLmnbT-5" target="aI2UTffV4MV9dATLmnbT-6">
          <mxGeometry relative="1" as="geometry" />
        </mxCell>
        <mxCell id="aI2UTffV4MV9dATLmnbT-5" value="PAIR" style="rounded=1;whiteSpace=wrap;html=1;fillColor=#dae8fc;strokeColor=#6c8ebf;" vertex="1" parent="1">
          <mxGeometry x="365" y="480" width="120" height="40" as="geometry" />
        </mxCell>
        <mxCell id="aI2UTffV4MV9dATLmnbT-6" value="PAIR" style="rounded=1;whiteSpace=wrap;html=1;fillColor=#dae8fc;strokeColor=#6c8ebf;" vertex="1" parent="1">
          <mxGeometry x="365" y="600" width="120" height="40" as="geometry" />
        </mxCell>
        <mxCell id="aI2UTffV4MV9dATLmnbT-7" value="Step 3" style="rounded=1;whiteSpace=wrap;html=1;fillColor=#e1d5e7;strokeColor=#9673a6;" vertex="1" parent="1">
          <mxGeometry x="365" y="640" width="120" height="40" as="geometry" />
        </mxCell>
        <mxCell id="aI2UTffV4MV9dATLmnbT-10" value="Ready!" style="text;html=1;align=center;verticalAlign=middle;whiteSpace=wrap;rounded=0;" vertex="1" parent="1">
          <mxGeometry x="425" y="340" width="60" height="30" as="geometry" />
        </mxCell>
        <mxCell id="aI2UTffV4MV9dATLmnbT-11" value="Ready!" style="text;html=1;align=center;verticalAlign=middle;whiteSpace=wrap;rounded=0;" vertex="1" parent="1">
          <mxGeometry x="425" y="540" width="60" height="30" as="geometry" />
        </mxCell>
      </root>
    </mxGraphModel>
  </diagram>
</mxfile>
